<svg width="237" height="94" viewBox="0 0 237 94" fill="none" xmlns="http://www.w3.org/2000/svg">
<g filter="url(#filter0_d_276_4336)">
<rect x="16" y="12" width="205" height="62" rx="12" fill="#F6FFF9"/>
<rect x="16.5" y="12.5" width="204" height="61" rx="11.5" stroke="#48C1B5"/>
<path d="M74.344 47.224H78.024V49H72.104V37.832H74.344V47.224ZM80.5838 39.08C80.1891 39.08 79.8584 38.9573 79.5918 38.712C79.3358 38.456 79.2078 38.1413 79.2078 37.768C79.2078 37.3947 79.3358 37.0853 79.5918 36.84C79.8584 36.584 80.1891 36.456 80.5838 36.456C80.9784 36.456 81.3038 36.584 81.5598 36.84C81.8264 37.0853 81.9598 37.3947 81.9598 37.768C81.9598 38.1413 81.8264 38.456 81.5598 38.712C81.3038 38.9573 80.9784 39.08 80.5838 39.08ZM81.6878 40.136V49H79.4478V40.136H81.6878ZM88.8129 40.008C89.8689 40.008 90.7222 40.344 91.3729 41.016C92.0235 41.6773 92.3489 42.6053 92.3489 43.8V49H90.1089V44.104C90.1089 43.4 89.9329 42.8613 89.5809 42.488C89.2289 42.104 88.7489 41.912 88.1409 41.912C87.5222 41.912 87.0315 42.104 86.6689 42.488C86.3169 42.8613 86.1409 43.4 86.1409 44.104V49H83.9009V40.136H86.1409V41.24C86.4395 40.856 86.8182 40.5573 87.2769 40.344C87.7462 40.12 88.2582 40.008 88.8129 40.008ZM99.727 49L96.719 45.224V49H94.479V37.16H96.719V43.896L99.695 40.136H102.607L98.703 44.584L102.639 49H99.727ZM107.091 43.4C107.091 42.3013 107.337 41.32 107.827 40.456C108.329 39.5813 109.006 38.904 109.859 38.424C110.723 37.9333 111.689 37.688 112.755 37.688C114.003 37.688 115.097 38.008 116.035 38.648C116.974 39.288 117.63 40.1733 118.003 41.304H115.427C115.171 40.7707 114.809 40.3707 114.339 40.104C113.881 39.8373 113.347 39.704 112.739 39.704C112.089 39.704 111.507 39.8587 110.995 40.168C110.494 40.4667 110.099 40.8933 109.811 41.448C109.534 42.0027 109.395 42.6533 109.395 43.4C109.395 44.136 109.534 44.7867 109.811 45.352C110.099 45.9067 110.494 46.3387 110.995 46.648C111.507 46.9467 112.089 47.096 112.739 47.096C113.347 47.096 113.881 46.9627 114.339 46.696C114.809 46.4187 115.171 46.0133 115.427 45.48H118.003C117.63 46.6213 116.974 47.512 116.035 48.152C115.107 48.7813 114.014 49.096 112.755 49.096C111.689 49.096 110.723 48.856 109.859 48.376C109.006 47.8853 108.329 47.208 107.827 46.344C107.337 45.48 107.091 44.4987 107.091 43.4ZM123.853 49.144C122.999 49.144 122.231 48.9573 121.549 48.584C120.866 48.2 120.327 47.6613 119.933 46.968C119.549 46.2747 119.357 45.4747 119.357 44.568C119.357 43.6613 119.554 42.8613 119.949 42.168C120.354 41.4747 120.903 40.9413 121.597 40.568C122.29 40.184 123.063 39.992 123.917 39.992C124.77 39.992 125.543 40.184 126.237 40.568C126.93 40.9413 127.474 41.4747 127.869 42.168C128.274 42.8613 128.477 43.6613 128.477 44.568C128.477 45.4747 128.269 46.2747 127.852 46.968C127.447 47.6613 126.893 48.2 126.189 48.584C125.495 48.9573 124.717 49.144 123.853 49.144ZM123.853 47.192C124.258 47.192 124.637 47.096 124.989 46.904C125.351 46.7013 125.639 46.4027 125.853 46.008C126.066 45.6133 126.173 45.1333 126.173 44.568C126.173 43.7253 125.949 43.08 125.501 42.632C125.063 42.1733 124.525 41.944 123.885 41.944C123.245 41.944 122.706 42.1733 122.269 42.632C121.842 43.08 121.629 43.7253 121.629 44.568C121.629 45.4107 121.837 46.0613 122.253 46.52C122.679 46.968 123.213 47.192 123.853 47.192ZM132.36 41.416C132.648 41.0107 133.042 40.6747 133.544 40.408C134.056 40.1307 134.637 39.992 135.288 39.992C136.045 39.992 136.728 40.1787 137.336 40.552C137.954 40.9253 138.44 41.4587 138.792 42.152C139.154 42.8347 139.336 43.6293 139.336 44.536C139.336 45.4427 139.154 46.248 138.792 46.952C138.44 47.6453 137.954 48.184 137.336 48.568C136.728 48.952 136.045 49.144 135.288 49.144C134.637 49.144 134.061 49.0107 133.56 48.744C133.069 48.4773 132.669 48.1413 132.36 47.736V53.224H130.12V40.136H132.36V41.416ZM137.048 44.536C137.048 44.0027 136.936 43.544 136.712 43.16C136.498 42.7653 136.21 42.4667 135.848 42.264C135.496 42.0613 135.112 41.96 134.696 41.96C134.29 41.96 133.906 42.0667 133.544 42.28C133.192 42.4827 132.904 42.7813 132.68 43.176C132.466 43.5707 132.36 44.0347 132.36 44.568C132.36 45.1013 132.466 45.5653 132.68 45.96C132.904 46.3547 133.192 46.6587 133.544 46.872C133.906 47.0747 134.29 47.176 134.696 47.176C135.112 47.176 135.496 47.0693 135.848 46.856C136.21 46.6427 136.498 46.3387 136.712 45.944C136.936 45.5493 137.048 45.08 137.048 44.536ZM142.099 39.08C141.705 39.08 141.374 38.9573 141.107 38.712C140.851 38.456 140.723 38.1413 140.723 37.768C140.723 37.3947 140.851 37.0853 141.107 36.84C141.374 36.584 141.705 36.456 142.099 36.456C142.494 36.456 142.819 36.584 143.075 36.84C143.342 37.0853 143.475 37.3947 143.475 37.768C143.475 38.1413 143.342 38.456 143.075 38.712C142.819 38.9573 142.494 39.08 142.099 39.08ZM143.203 40.136V49H140.963V40.136H143.203ZM153.657 44.376C153.657 44.696 153.635 44.984 153.593 45.24H147.113C147.166 45.88 147.39 46.3813 147.785 46.744C148.179 47.1067 148.665 47.288 149.241 47.288C150.073 47.288 150.665 46.9307 151.017 46.216H153.433C153.177 47.0693 152.686 47.7733 151.961 48.328C151.235 48.872 150.345 49.144 149.289 49.144C148.435 49.144 147.667 48.9573 146.985 48.584C146.313 48.2 145.785 47.6613 145.401 46.968C145.027 46.2747 144.84 45.4747 144.84 44.568C144.84 43.6507 145.027 42.8453 145.401 42.152C145.774 41.4587 146.297 40.9253 146.969 40.552C147.641 40.1787 148.414 39.992 149.289 39.992C150.131 39.992 150.883 40.1733 151.545 40.536C152.217 40.8987 152.734 41.416 153.097 42.088C153.47 42.7493 153.657 43.512 153.657 44.376ZM151.337 43.736C151.326 43.16 151.118 42.7013 150.713 42.36C150.307 42.008 149.811 41.832 149.225 41.832C148.67 41.832 148.201 42.0027 147.817 42.344C147.443 42.6747 147.214 43.1387 147.129 43.736H151.337ZM154.715 44.536C154.715 43.64 154.891 42.8453 155.243 42.152C155.606 41.4587 156.097 40.9253 156.716 40.552C157.334 40.1787 158.022 39.992 158.78 39.992C159.356 39.992 159.905 40.12 160.428 40.376C160.95 40.6213 161.366 40.952 161.676 41.368V37.16H163.948V49H161.676V47.688C161.398 48.1253 161.009 48.4773 160.508 48.744C160.006 49.0107 159.425 49.144 158.764 49.144C158.017 49.144 157.334 48.952 156.716 48.568C156.097 48.184 155.606 47.6453 155.243 46.952C154.891 46.248 154.715 45.4427 154.715 44.536ZM161.692 44.568C161.692 44.024 161.585 43.56 161.372 43.176C161.158 42.7813 160.87 42.4827 160.508 42.28C160.145 42.0667 159.756 41.96 159.34 41.96C158.924 41.96 158.54 42.0613 158.188 42.264C157.836 42.4667 157.548 42.7653 157.324 43.16C157.11 43.544 157.004 44.0027 157.004 44.536C157.004 45.0693 157.11 45.5387 157.324 45.944C157.548 46.3387 157.836 46.6427 158.188 46.856C158.55 47.0693 158.934 47.176 159.34 47.176C159.756 47.176 160.145 47.0747 160.508 46.872C160.87 46.6587 161.158 46.36 161.372 45.976C161.585 45.5813 161.692 45.112 161.692 44.568Z" fill="#27303A"/>
</g>
<defs>
<filter id="filter0_d_276_4336" x="0" y="0" width="237" height="94" filterUnits="userSpaceOnUse" color-interpolation-filters="sRGB">
<feFlood flood-opacity="0" result="BackgroundImageFix"/>
<feColorMatrix in="SourceAlpha" type="matrix" values="0 0 0 0 0 0 0 0 0 0 0 0 0 0 0 0 0 0 127 0" result="hardAlpha"/>
<feOffset dy="4"/>
<feGaussianBlur stdDeviation="8"/>
<feComposite in2="hardAlpha" operator="out"/>
<feColorMatrix type="matrix" values="0 0 0 0 0.0645403 0 0 0 0 0.0420884 0 0 0 0 0.154348 0 0 0 0.08 0"/>
<feBlend mode="normal" in2="BackgroundImageFix" result="effect1_dropShadow_276_4336"/>
<feBlend mode="normal" in="SourceGraphic" in2="effect1_dropShadow_276_4336" result="shape"/>
</filter>
</defs>
</svg>
