<svg width="262" height="302" viewBox="0 0 262 302" fill="none" xmlns="http://www.w3.org/2000/svg">
<path d="M182.34 260.806H101.819C88.0094 260.806 76.7109 249.553 76.7109 235.798V164.94C76.7109 151.185 88.0094 139.931 101.819 139.931H182.341C196.151 139.931 207.449 151.185 207.449 164.94V235.798C207.449 249.552 196.15 260.806 182.34 260.806Z" fill="white"/>
<path d="M182.34 139.93C196.15 139.93 207.448 151.184 207.448 164.939V235.797C207.448 249.552 196.15 260.805 182.34 260.805H101.819C88.0094 260.805 76.7109 249.552 76.7109 235.797V164.939C76.7109 151.184 88.0094 139.93 101.819 139.93H182.34ZM182.34 135.977H101.819C97.9086 135.977 94.1065 136.748 90.5188 138.266C87.0603 139.729 83.9522 141.82 81.2807 144.482C78.6091 147.143 76.5091 150.239 75.0395 153.683C73.5155 157.256 72.7422 161.043 72.7422 164.939V235.797C72.7422 239.692 73.5155 243.479 75.0395 247.053C76.5091 250.497 78.608 253.593 81.2807 256.254C83.9522 258.915 87.0614 261.006 90.5188 262.47C94.1065 263.988 97.9086 264.758 101.819 264.758H182.341C186.252 264.758 190.054 263.988 193.641 262.47C197.1 261.006 200.208 258.916 202.88 256.254C205.551 253.593 207.651 250.496 209.121 247.053C210.645 243.479 211.418 239.692 211.418 235.797V164.939C211.418 161.043 210.645 157.256 209.121 153.683C207.651 150.238 205.552 147.143 202.88 144.482C200.208 141.821 197.099 139.729 193.641 138.266C190.054 136.748 186.251 135.977 182.34 135.977Z" fill="#317F8B"/>
<path d="M205.648 216.991C193.111 218.455 180.615 218.815 180.615 218.815C180.615 218.815 174.251 187.21 172.487 162.427C171.188 144.064 172.41 129.451 180.615 134.217C184.39 136.41 188.737 140.54 193.271 145.779C210.274 165.437 229.809 200.735 230.881 208.059C231.573 212.77 218.593 215.471 205.648 216.991Z" fill="white"/>
<path d="M178.936 220.921L178.594 219.221C178.555 219.027 174.663 199.607 172.145 179.499C170.66 167.643 169.934 157.855 169.986 150.407C170.057 140.233 171.541 134.463 174.653 132.248C176.02 131.276 178.344 130.521 181.655 132.445C192.571 138.787 206.424 158.992 213.71 170.471C218.57 178.129 223.223 186.178 226.812 193.135C229.34 198.037 232.453 204.553 232.924 207.762C233.061 208.694 232.969 210.107 231.756 211.545C230.002 213.626 226.358 215.254 220.288 216.668C215.838 217.705 210.119 218.597 203.291 219.32C191.73 220.543 180.784 220.868 180.676 220.871L178.936 220.921ZM177.773 135.362C177.375 135.362 177.166 135.511 177.052 135.591C175.706 136.549 171.671 142.505 176.236 178.969C178.305 195.483 181.306 211.538 182.304 216.699C185.824 216.558 194.176 216.152 202.878 215.231C223.08 213.09 227.593 210.092 228.597 208.903C228.874 208.574 228.852 208.422 228.842 208.356C228.255 204.364 220.634 189.069 210.224 172.667C198.166 153.672 186.997 140.304 179.577 135.993C178.735 135.504 178.163 135.362 177.773 135.362Z" fill="#317F8B"/>
<path d="M116.823 133.051L114.285 152.17L112.842 163.039L109.763 186.246C109.763 186.246 104.137 190.058 94.7774 193.078C91.2804 194.208 87.2526 195.219 82.8077 195.882C75.5414 196.971 67.1402 197.11 58.0381 195.255C34.6203 190.478 20.5664 173.153 14.4817 164.442C2.72175 147.628 0.912001 143.083 4.18111 136.005C6.67689 130.58 10.9529 129.59 10.9529 129.59C10.9529 129.59 10.742 125.255 14.1869 123.713C24.5113 119.095 37.8111 131.428 37.8111 131.428C37.8111 131.428 38.3067 118.166 45.4334 121.228C50.3433 123.338 51.4568 137.778 51.4568 137.778C51.4568 137.778 58.0472 146.212 68.5168 147.331C73.988 147.916 81.5592 146.335 89.0783 144.039C89.1656 144.013 89.254 143.988 89.3413 143.957C93.3486 142.725 97.3299 141.296 100.975 139.883C102.611 139.252 104.178 138.619 105.647 138.014C112.217 135.301 116.823 133.051 116.823 133.051Z" fill="white"/>
<path opacity="0.35" d="M14.478 164.442C20.5684 173.15 34.62 190.479 58.0356 195.255C72.7029 198.243 85.556 196.048 94.7782 193.074C104.138 190.058 109.763 186.244 109.763 186.244L110.176 167.93C110.176 167.93 103.799 161.809 97.8591 164.305C90.7221 167.304 93.0093 177.496 82.8164 180.331C54.4807 188.212 31.462 173.813 24.0552 167.492C13.7795 158.724 11.0989 153.201 9.65319 150.922C6.66075 146.206 4.34981 142.501 3.04693 139.183C1.7191 144.796 4.55392 150.247 14.478 164.442Z" fill="#317F8B"/>
<path d="M72.1664 198.732C67.2769 198.732 62.4078 198.243 57.6226 197.266C47.0964 195.119 37.2754 190.286 28.4342 182.897C22.7442 178.142 17.4793 172.327 12.7871 165.616C7.06081 157.425 3.4209 151.798 1.76083 147.278C0.169934 142.947 0.327549 139.432 2.30285 135.145C4.24754 130.923 7.18781 128.982 8.96467 128.149C9.25496 125.979 10.3855 123.163 13.3405 121.842C21.7361 118.085 31.4244 123.898 36.2197 127.476C36.2662 127.234 36.3184 126.985 36.374 126.733C37.1688 123.182 38.5409 120.772 40.4516 119.572C41.6252 118.834 43.5835 118.196 46.2539 119.345C48.9628 120.51 50.9393 123.942 52.2977 129.837C52.9928 132.857 53.3273 135.692 53.4532 136.948C54.9114 138.592 60.6105 144.42 68.7385 145.288C83.576 146.872 115.591 131.363 115.913 131.206C116.596 130.872 117.408 130.94 118.025 131.383C118.642 131.825 118.965 132.57 118.866 133.32L111.811 186.512C111.734 187.093 111.413 187.612 110.926 187.941C110.69 188.101 105.032 191.9 95.6239 194.961C90.113 196.755 84.4434 197.923 78.7738 198.434C76.5705 198.633 74.3662 198.732 72.1664 198.732ZM11.4298 131.585C11.1634 131.657 8.01444 132.597 6.05161 136.857C3.40843 142.595 4.05817 145.939 16.1719 163.267C27.5611 179.557 42.1797 189.922 58.4493 193.24C73.2731 196.264 86.1488 193.72 94.3403 191.055C101.284 188.795 106.073 186.099 107.844 185.023L114.28 136.504C110.918 138.033 105.419 140.435 99.2468 142.739C85.5082 147.867 75.0942 150.098 68.2985 149.373C57.0874 148.177 50.1206 139.413 49.8291 139.04C49.5808 138.722 49.4311 138.338 49.4005 137.936C49.3983 137.902 49.1182 134.395 48.2655 130.711C46.8288 124.5 45.1097 123.327 44.6176 123.116C43.3862 122.586 42.8544 122.919 42.6536 123.045C40.9199 124.131 39.981 128.646 39.8676 131.505C39.8358 132.307 39.3369 133.018 38.5919 133.324C37.8458 133.63 36.9908 133.477 36.4 132.929C36.2776 132.816 23.9779 121.585 15.03 125.589C12.9686 126.512 13.006 129.295 13.0117 129.495C13.0729 130.509 12.4266 131.375 11.4298 131.585Z" fill="#317F8B"/>
<path d="M39.5076 131.426C39.5552 132.003 39.4691 132.528 39.3534 132.983C39.2956 133.218 39.2241 133.421 39.1516 133.63C39.0779 133.826 38.9973 134.025 38.918 134.202C38.5925 134.931 38.241 135.536 37.9065 136.122C37.5709 136.705 37.2477 137.259 36.9472 137.815L36.7272 138.233C36.6581 138.373 36.5843 138.512 36.5174 138.653L36.3224 139.078L36.1364 139.507L35.9675 139.943L35.811 140.385C35.7577 140.533 35.718 140.685 35.6704 140.835C35.6205 140.985 35.5831 141.139 35.5423 141.291C35.3858 141.906 35.2509 142.538 35.1726 143.19C35.0876 143.84 35.0331 144.508 35.0173 145.186C35.0003 145.528 35.0071 145.869 35.0037 146.216C34.998 146.39 35.0127 146.562 35.0139 146.737C35.0173 146.912 35.0229 147.087 35.0218 147.265V147.277C35.0218 147.414 34.9107 147.524 34.7723 147.524C34.676 147.524 34.5932 147.47 34.5524 147.39C34.2212 146.751 33.9219 146.087 33.6906 145.393C33.4468 144.702 33.2722 143.981 33.144 143.244C32.8923 141.769 32.898 140.208 33.1746 138.683L33.2892 138.114C33.3334 137.927 33.3821 137.74 33.4286 137.552C33.4785 137.365 33.5341 137.182 33.5862 136.996C33.6407 136.812 33.7053 136.632 33.7654 136.451C34.0137 135.728 34.321 135.041 34.6374 134.397C34.9526 133.755 35.2883 133.148 35.5604 132.622C35.8473 132.089 36.0094 131.656 36.1047 131.422L36.3043 130.933C36.6512 130.085 37.623 129.678 38.4746 130.023C39.0767 130.269 39.4566 130.824 39.5076 131.426Z" fill="#317F8B"/>
<path d="M55.7706 196.666C55.2501 196.666 54.7478 196.379 54.5006 195.883C54.1513 195.185 54.4371 194.338 55.1378 193.99C60.8562 191.156 64.7638 182.313 66.4352 168.416C67.7312 157.646 67.1926 147.629 67.187 147.53C67.1439 146.752 67.7415 146.086 68.5227 146.041C69.3006 145.997 69.973 146.594 70.0172 147.372C70.0229 147.474 70.5751 157.704 69.2541 168.714C68.4728 175.23 67.1972 180.758 65.4623 185.146C63.2171 190.824 60.1679 194.651 56.401 196.518C56.1981 196.618 55.9826 196.666 55.7706 196.666Z" fill="#317F8B"/>
<g opacity="0.35">
<g opacity="0.35">
<g opacity="0.35">
<g opacity="0.35">
<path opacity="0.35" d="M238.704 287.537V287.249C236.437 287.346 238.704 287.537 238.704 287.537Z" fill="#317F8B"/>
</g>
</g>
</g>
</g>
<path d="M210.094 252.854H73.9209C73.9209 252.854 74.7509 229.448 82.8064 195.881C86.0346 182.418 90.4286 167.322 96.3953 151.444C97.8286 147.633 99.356 143.776 100.975 139.882C105.503 129.018 110.784 117.892 116.942 106.767H167.074C172.164 115.966 176.656 125.16 180.617 134.216C183.179 140.071 185.521 145.865 187.656 151.556C196.975 176.366 202.447 199.264 205.649 216.99C209.599 238.858 210.094 252.854 210.094 252.854Z" fill="white"/>
<path d="M191.399 169.013C194.031 171.94 195.234 175.346 196.346 178.767C196.904 180.478 197.453 182.192 197.978 183.915C198.242 184.775 198.511 185.635 198.746 186.503C198.988 187.369 199.222 188.239 199.458 189.108L200.148 191.718C200.374 192.588 200.604 193.458 200.817 194.333L202.07 199.585C202.274 200.461 202.497 201.332 202.697 202.21L203.294 204.841L203.908 207.469C204.114 208.345 204.327 209.219 204.52 210.097L205.702 215.364C205.905 216.24 206.079 217.123 206.266 218.003L206.82 220.645L207.096 221.965L207.235 222.626L207.364 223.288L207.882 225.936C208.055 226.819 208.233 227.701 208.42 228.581C208.599 229.463 208.779 230.345 208.967 231.226C209.757 234.742 210.333 238.303 210.572 241.91C210.602 242.361 210.638 242.81 210.659 243.263L210.717 244.62C210.746 245.526 210.771 246.43 210.758 247.342C210.752 248.251 210.732 249.161 210.673 250.075C210.619 250.988 210.544 251.902 210.405 252.823C210.379 253 210.212 253.122 210.034 253.096C209.913 253.078 209.818 252.995 209.777 252.889L209.776 252.885C209.125 251.162 208.593 249.432 208.091 247.702C207.844 246.837 207.606 245.969 207.375 245.103L207.044 243.801C206.94 243.366 206.832 242.932 206.723 242.498C206.301 240.759 205.93 239.017 205.595 237.266C205.434 236.39 205.288 235.511 205.154 234.63C205.01 233.75 204.877 232.869 204.74 231.989C204.606 231.107 204.466 230.227 204.323 229.347C204.171 228.468 204.002 227.593 203.831 226.718L203.317 224.092L203.189 223.436L203.052 222.781L202.777 221.472L202.228 218.853C202.042 217.981 201.869 217.105 201.668 216.236L200.496 211.013C200.308 210.142 200.088 209.276 199.88 208.409L199.239 205.81L198.583 203.216C198.476 202.783 198.355 202.353 198.239 201.923L197.887 200.632L196.47 195.471C195.981 193.755 195.479 192.043 195.002 190.324C194.764 189.464 194.526 188.605 194.294 187.743L194.122 187.097L193.939 186.454L193.58 185.165C193.1 183.447 192.646 181.721 192.198 179.993L191.869 178.695C191.759 178.262 191.638 177.833 191.522 177.401C191.292 176.539 191.099 175.664 190.954 174.776C190.81 173.886 190.709 172.982 190.67 172.058C190.65 171.596 190.648 171.129 190.665 170.654C190.683 170.18 190.713 169.7 190.797 169.204L190.801 169.185C190.833 168.998 191.011 168.871 191.199 168.903C191.279 168.917 191.35 168.958 191.399 169.013Z" fill="#317F8B"/>
<path d="M73.6015 252.844C73.3917 252.379 73.2477 251.917 73.1128 251.453C72.9778 250.987 72.8769 250.528 72.7873 250.065C72.6059 249.139 72.5084 248.218 72.454 247.3C72.429 246.84 72.412 246.382 72.4131 245.924C72.4143 245.467 72.4324 245.012 72.454 244.557L72.5311 243.191C72.5549 242.736 72.5832 242.281 72.6206 241.827C72.7624 240.011 72.9007 238.192 73.1139 236.385C73.2103 235.48 73.318 234.576 73.4246 233.671C73.4768 233.22 73.5471 232.77 73.6083 232.318L73.7999 230.967L74.2002 228.266C74.3408 227.367 74.5041 226.473 74.6572 225.576C74.9701 223.784 75.265 221.989 75.6222 220.206C75.9691 218.42 76.2866 216.63 76.6416 214.848C77.0021 213.067 77.3537 211.283 77.7006 209.499C77.7891 209.053 77.8685 208.606 77.9648 208.162L78.2506 206.829L78.821 204.164L79.3913 201.498C79.4401 201.276 79.4843 201.053 79.5353 200.832L79.6918 200.169L80.0048 198.842L81.2555 193.535C81.3564 193.092 81.4698 192.652 81.5821 192.211C81.6909 191.77 81.8021 191.329 81.9064 190.888C82.1173 190.003 82.3259 189.119 82.5266 188.232C82.7319 187.347 82.9326 186.459 83.1446 185.575C83.3487 184.688 83.605 183.816 83.8613 182.943C84.1232 182.073 84.401 181.206 84.6924 180.344C84.985 179.482 85.2957 178.625 85.6098 177.77L86.0951 176.491C86.1767 176.279 86.2675 176.069 86.3559 175.858C86.4455 175.647 86.5317 175.436 86.6246 175.226C86.9909 174.387 87.3617 173.551 87.7563 172.723C88.1464 171.893 88.5535 171.07 88.9809 170.255C89.4084 169.439 89.8518 168.629 90.3439 167.837C90.438 167.684 90.6387 167.637 90.7918 167.732C90.8961 167.796 90.9517 167.91 90.946 168.025V168.03C90.7419 171.757 90.0412 175.303 89.3495 178.848C89.1714 179.733 88.99 180.616 88.7904 181.494C88.5897 182.372 88.3743 183.245 88.1452 184.113C87.6667 185.846 87.1859 187.577 86.6847 189.305C86.4341 190.169 86.1903 191.034 85.9488 191.901C85.8264 192.333 85.7118 192.768 85.595 193.202C85.4805 193.637 85.3626 194.07 85.2651 194.51L84.028 199.76L83.7184 201.072L83.5642 201.729C83.5131 201.948 83.4689 202.168 83.4213 202.387L82.8566 205.024L82.2919 207.661L82.0096 208.981C81.9154 209.42 81.8361 209.863 81.7488 210.303C80.2996 217.349 79.3256 224.48 78.3787 231.597L78.0113 234.264C77.8968 235.154 77.7823 236.044 77.6575 236.933L76.9273 242.267C76.7946 243.156 76.688 244.045 76.5678 244.934C76.5055 245.378 76.4397 245.823 76.3569 246.265C76.2753 246.708 76.1948 247.151 76.095 247.592C75.8966 248.476 75.6505 249.357 75.3591 250.235C75.2139 250.675 75.0405 251.115 74.8624 251.553C74.6799 251.991 74.4814 252.432 74.2365 252.869L74.2342 252.873C74.139 253.043 73.9247 253.104 73.7546 253.009C73.6831 252.968 73.6321 252.91 73.6015 252.844Z" fill="#317F8B"/>
<path d="M113.141 223.323C105.375 226.455 93.3551 225.8 85.1614 224.811C80.2469 224.22 76.7964 219.702 77.521 214.824C78.182 210.373 82.1156 207.136 86.6275 207.346C94.2917 207.704 105.789 207.872 113.07 206.263" fill="white"/>
<g opacity="0.35">
<g opacity="0.35">
<g opacity="0.35">
<g opacity="0.35">
<path opacity="0.35" d="M113.143 223.322C105.375 226.458 93.355 225.796 85.1612 224.815C80.2468 224.222 76.7974 219.702 77.522 214.827C77.666 213.832 77.9801 212.898 78.4257 212.046C79.7195 214.507 82.1699 216.32 85.1612 216.682C93.3403 217.67 105.339 218.325 113.109 215.209L113.143 223.322Z" fill="#317F8B"/>
</g>
</g>
</g>
</g>
<path d="M97.7006 227.682C93.2069 227.682 88.7392 227.313 84.9133 226.852C81.9833 226.499 79.3832 225.017 77.5916 222.679C75.7966 220.337 75.047 217.441 75.4802 214.525C75.8748 211.867 77.2378 209.463 79.3174 207.754C81.3993 206.043 84.03 205.17 86.7242 205.297C98.0147 205.823 107.212 205.455 112.622 204.26C113.708 204.02 116.407 204.011 118 209.113C119.618 214.296 119.439 223.002 113.916 225.229C109.361 227.064 103.51 227.682 97.7006 227.682ZM86.2094 209.392C82.8825 209.392 80.0545 211.805 79.5623 215.125C79.2936 216.934 79.7585 218.732 80.872 220.185C81.9821 221.634 83.5934 222.553 85.41 222.772C97.1269 224.183 106.702 223.703 112.368 221.419C114.051 220.74 114.534 218.024 114.664 216.887C115.118 212.912 113.903 209.239 113.142 208.35C105.758 209.897 94.6311 209.778 86.5326 209.4C86.4237 209.394 86.316 209.392 86.2094 209.392Z" fill="#317F8B"/>
<path d="M172.547 223.323C180.313 226.455 192.333 225.8 200.526 224.811C205.441 224.22 208.891 219.702 208.167 214.824C207.506 210.373 203.572 207.136 199.06 207.346C191.396 207.704 179.899 207.872 172.618 206.263" fill="white"/>
<g opacity="0.35">
<g opacity="0.35">
<g opacity="0.35">
<g opacity="0.35">
<path opacity="0.35" d="M200.524 224.815C192.33 225.796 180.312 226.458 172.542 223.322L172.576 215.134C180.345 218.25 192.344 217.595 200.524 216.606C203.502 216.252 205.938 214.451 207.239 212.004C207.697 212.864 208.019 213.811 208.17 214.826C208.889 219.702 205.439 224.222 200.524 224.815Z" fill="#317F8B"/>
</g>
</g>
</g>
</g>
<path d="M187.988 227.682C182.179 227.682 176.329 227.065 171.773 225.228C166.25 223.001 166.07 214.294 167.689 209.112C169.281 204.011 171.981 204.019 173.067 204.259C178.478 205.455 187.675 205.823 198.965 205.295C201.661 205.17 204.29 206.043 206.371 207.753C208.451 209.462 209.814 211.866 210.209 214.524C210.642 217.44 209.891 220.336 208.097 222.678C206.306 225.016 203.706 226.498 200.775 226.851C196.95 227.312 192.481 227.682 187.988 227.682ZM172.547 208.35C171.787 209.239 170.572 212.912 171.026 216.888C171.155 218.024 171.638 220.74 173.322 221.419C178.988 223.704 188.563 224.185 200.28 222.772C202.095 222.553 203.708 221.634 204.818 220.185C205.931 218.732 206.396 216.935 206.128 215.125C205.62 211.699 202.624 209.239 199.159 209.4C191.058 209.778 179.932 209.895 172.547 208.35Z" fill="#317F8B"/>
<path d="M175.548 200.626V227.965C175.548 233.037 171.38 237.188 166.288 237.188H115.738C110.653 237.188 106.484 233.037 106.484 227.965V200.626C106.484 195.554 110.653 191.409 115.738 191.409H166.288C169.286 191.409 171.962 192.848 173.659 195.063C174.843 196.61 175.548 198.54 175.548 200.626Z" fill="white"/>
<g opacity="0.35">
<g opacity="0.35">
<g opacity="0.35">
<g opacity="0.35">
<path opacity="0.35" d="M175.547 200.626V227.965C175.547 233.037 171.381 237.186 166.288 237.186H115.74C110.647 237.186 106.481 233.037 106.481 227.965V217.739C114.073 225.448 129.004 230.288 142.697 230.36C147.096 230.384 150.646 226.918 150.96 222.546C150.963 222.502 150.967 222.458 150.97 222.415C151.307 218.579 154.478 215.474 158.334 215.197C162.724 214.882 166.431 218.112 166.865 222.31C173.493 214.16 171.552 199.995 173.66 195.063C174.845 196.613 175.547 198.539 175.547 200.626Z" fill="#317F8B"/>
</g>
</g>
</g>
</g>
<path d="M166.289 239.242H115.739C109.498 239.242 104.42 234.184 104.42 227.968V200.626C104.42 194.41 109.498 189.353 115.739 189.353H166.289C172.53 189.353 177.608 194.41 177.608 200.626V227.968C177.608 234.184 172.53 239.242 166.289 239.242ZM115.739 193.462C111.772 193.462 108.545 196.676 108.545 200.626V227.968C108.545 231.919 111.772 235.133 115.739 235.133H166.289C170.256 235.133 173.483 231.919 173.483 227.968V200.626C173.483 196.676 170.256 193.462 166.289 193.462H115.739Z" fill="#317F8B"/>
<path d="M158.922 222.248C163.331 222.248 166.905 218.688 166.905 214.297C166.905 209.905 163.331 206.346 158.922 206.346C154.514 206.346 150.939 209.905 150.939 214.297C150.939 218.688 154.514 222.248 158.922 222.248Z" fill="#22A7F0"/>
<g opacity="0.7">
<g opacity="0.7">
<g opacity="0.7">
<g opacity="0.7">
<path opacity="0.7" d="M166.905 214.297C166.905 214.841 166.853 215.37 166.75 215.886C166.013 212.25 162.788 209.515 158.925 209.515C155.056 209.515 151.831 212.25 151.094 215.886C150.991 215.37 150.938 214.842 150.938 214.297C150.938 209.903 154.514 206.348 158.925 206.348C163.329 206.348 166.905 209.903 166.905 214.297Z" fill="white"/>
</g>
</g>
</g>
</g>
<g opacity="0.35">
<g opacity="0.35">
<g opacity="0.35">
<g opacity="0.35">
<path opacity="0.35" d="M166.903 214.296C166.903 218.686 163.33 222.244 158.922 222.244C154.514 222.244 150.941 218.686 150.941 214.296C150.941 213.28 151.133 212.311 151.489 211.419C152.639 214.385 155.535 216.484 158.923 216.484C162.311 216.484 165.206 214.385 166.357 211.419C166.711 212.311 166.903 213.279 166.903 214.296Z" fill="#317F8B"/>
</g>
</g>
</g>
</g>
<path d="M158.922 223.788C153.667 223.788 149.393 219.53 149.393 214.297C149.393 209.063 153.667 204.805 158.922 204.805C164.177 204.805 168.452 209.063 168.452 214.297C168.452 219.53 164.177 223.788 158.922 223.788ZM158.922 207.887C155.374 207.887 152.487 210.763 152.487 214.297C152.487 217.831 155.374 220.706 158.922 220.706C162.47 220.706 165.357 217.831 165.357 214.297C165.357 210.763 162.47 207.887 158.922 207.887Z" fill="#317F8B"/>
<path d="M136.302 238.728C135.447 238.728 134.755 238.038 134.755 237.187V218.462L124.646 210.881V191.407C124.646 190.556 125.339 189.867 126.193 189.867C127.047 189.867 127.74 190.557 127.74 191.407V209.343L137.849 216.924V237.187C137.849 238.038 137.156 238.728 136.302 238.728Z" fill="#317F8B"/>
<path d="M142.005 251.907C150.947 251.907 159.546 248.602 166.262 242.721C175.565 234.576 191.226 224.862 208.511 231.093C215.447 233.591 220.174 238.176 223.399 243.248C231.703 224.082 249.125 222.933 256.666 233.796C256.666 233.796 243.991 294.024 239.86 295.365C233.942 297.285 219.722 295.266 219.722 295.266C219.722 295.266 170.254 288.595 142.005 288.595C113.757 288.595 64.2881 295.266 64.2881 295.266C64.2881 295.266 50.0686 297.284 44.1507 295.365C40.0198 294.024 27.3447 233.796 27.3447 233.796C34.8842 222.932 52.307 224.082 60.6119 243.248C63.8357 238.174 68.563 233.591 75.4992 231.093C92.7848 224.862 108.446 234.576 117.748 242.721C124.465 248.601 133.063 251.907 142.005 251.907Z" fill="white"/>
<g opacity="0.35">
<path d="M256.667 233.794C256.667 233.794 243.991 294.024 239.86 295.365C233.945 297.286 219.722 295.268 219.722 295.268C219.722 295.268 170.255 288.595 142.005 288.595C113.76 288.595 64.2876 295.268 64.2876 295.268C64.2876 295.268 50.0693 297.286 44.1547 295.365C40.0238 294.024 27.3477 233.794 27.3477 233.794C28.5904 232.006 30.0963 230.542 31.7881 229.433C35.8521 247.092 41.617 270.15 44.1547 270.972C50.0704 272.888 64.2876 270.869 64.2876 270.869C64.2876 270.869 113.76 257.525 142.005 257.525C170.255 257.525 219.722 270.869 219.722 270.869C219.722 270.869 233.945 272.888 239.86 270.972C242.398 270.15 248.163 247.092 252.227 229.433C253.919 230.543 255.425 232.007 256.667 233.794Z" fill="#317F8B"/>
</g>
<path d="M51.7778 298.242C48.6754 298.242 45.6444 298.01 43.5127 297.319C42.059 296.847 40.8366 295.242 38.5427 288.124C37.2001 283.958 35.5888 278.156 33.7552 270.881C30.4532 257.782 27.2351 243.091 26.0048 237.383C25.3607 234.394 26.3439 231.303 28.572 229.318C32.8492 225.504 38.5823 224.036 44.2996 225.289C47.9032 226.08 51.4093 227.953 54.4392 230.708C56.9485 232.991 59.1302 235.841 60.949 239.212C64.64 234.521 69.2868 231.147 74.8 229.161C81.0468 226.909 87.5827 226.462 94.2275 227.831C99.5921 228.938 105.047 231.232 110.44 234.652C111.402 235.262 111.684 236.531 111.073 237.489C110.462 238.447 109.186 238.728 108.225 238.119C97.1247 231.081 86.3513 229.367 76.2038 233.026C70.4808 235.088 65.8215 238.896 62.3574 244.348C61.948 244.992 61.2132 245.356 60.4524 245.298C59.6904 245.238 59.0236 244.763 58.7197 244.063C55.2499 236.055 49.671 230.675 43.4129 229.304C39.0064 228.339 34.6 229.46 31.3241 232.382C30.1969 233.386 29.7048 234.973 30.0393 236.523C31.2005 241.911 34.2439 255.811 37.4144 268.511C39.1572 275.492 40.7016 281.172 42.0057 285.39C43.8313 291.298 44.7849 293.031 45.124 293.514C49.7844 294.815 60.2664 293.765 63.9993 293.235C64.0038 293.234 64.0084 293.234 64.0129 293.233C64.5084 293.166 113.944 286.543 142.007 286.543C170.07 286.543 219.505 293.166 220 293.233C220.005 293.234 220.011 293.234 220.015 293.235C223.749 293.765 234.23 294.815 238.891 293.514C239.224 293.04 240.151 291.357 241.916 285.691C243.189 281.604 244.696 276.097 246.397 269.323C249.429 257.244 252.336 244.102 253.798 237.343C254.278 235.129 253.444 232.858 251.676 231.56C248.3 229.081 244.116 228.341 239.896 229.477C233.85 231.104 228.665 236.285 225.295 244.064C224.992 244.763 224.325 245.239 223.562 245.299C222.799 245.359 222.066 244.993 221.657 244.349C218.193 238.898 213.535 235.089 207.812 233.027C197.575 229.337 186.709 231.11 175.514 238.296C174.556 238.911 173.28 238.636 172.662 237.682C172.046 236.729 172.321 235.457 173.279 234.842C178.705 231.359 184.196 229.014 189.598 227.872C196.308 226.454 202.909 226.888 209.216 229.162C214.729 231.149 219.376 234.523 223.068 239.215C226.942 232.041 232.446 227.225 238.82 225.509C244.201 224.06 249.779 225.06 254.125 228.252C257.198 230.508 258.653 234.416 257.833 238.208C256.284 245.369 253.213 259.241 250.054 271.695C248.264 278.757 246.69 284.384 245.378 288.417C243.139 295.298 241.937 296.856 240.501 297.321C234.228 299.356 220.159 297.406 219.443 297.304C218.667 297.2 169.711 290.653 142.008 290.653C114.3 290.653 65.3487 297.2 64.5731 297.304C64.0968 297.369 57.8047 298.242 51.7778 298.242Z" fill="#317F8B"/>
<path d="M236.187 295.365H239.861C244.174 295.365 248.085 292.845 249.841 288.922C255.341 276.656 265.368 249.702 255.976 233.255C255.703 232.775 255.41 232.313 255.1 231.87C255.1 231.87 246.084 223.701 239.605 235.257C233.555 246.053 220.854 292.213 236.187 295.365Z" fill="#AFAFB2"/>
<g opacity="0.7">
<g opacity="0.7">
<g opacity="0.7">
<g opacity="0.7">
<path opacity="0.7" d="M236.288 242.952C236.45 242.693 236.612 242.449 236.77 242.222C244.735 230.666 255.823 238.835 255.823 238.835C256.203 239.278 256.565 239.74 256.898 240.22C258.011 241.803 258.9 243.483 259.595 245.241C259.146 240.921 258.024 236.837 255.976 233.256C255.703 232.776 255.411 232.314 255.101 231.871C255.101 231.871 246.084 223.702 239.606 235.258C238.623 237.008 237.47 239.68 236.288 242.952Z" fill="white"/>
</g>
</g>
</g>
</g>
<path d="M259.545 246.473C259.452 246.473 259.358 246.466 259.263 246.45L236.725 242.702C235.799 242.549 235.173 241.676 235.327 240.752C235.481 239.829 236.359 239.206 237.284 239.359L259.822 243.107C260.749 243.26 261.374 244.133 261.22 245.057C261.082 245.887 260.362 246.473 259.545 246.473Z" fill="#317F8B"/>
<path d="M259.402 258.602C259.326 258.602 259.25 258.597 259.173 258.586L232.808 255.055C231.877 254.931 231.224 254.079 231.348 253.151C231.473 252.224 232.329 251.574 233.261 251.698L259.626 255.228C260.557 255.353 261.21 256.205 261.086 257.132C260.971 257.984 260.241 258.602 259.402 258.602Z" fill="#317F8B"/>
<path d="M257.077 270.481C257.008 270.481 256.938 270.477 256.868 270.469L230.104 267.206C229.172 267.092 228.509 266.247 228.622 265.319C228.737 264.39 229.584 263.728 230.517 263.842L257.281 267.105C258.213 267.219 258.876 268.064 258.763 268.992C258.658 269.852 257.924 270.481 257.077 270.481Z" fill="#317F8B"/>
<path d="M252.833 283.436C252.781 283.436 252.729 283.434 252.677 283.429L228.749 281.279C227.814 281.195 227.124 280.371 227.208 279.439C227.292 278.507 228.12 277.82 229.055 277.904L252.983 280.055C253.919 280.138 254.609 280.963 254.524 281.895C254.445 282.774 253.702 283.436 252.833 283.436Z" fill="#317F8B"/>
<g opacity="0.35">
<g opacity="0.35">
<g opacity="0.35">
<g opacity="0.35">
<path opacity="0.35" d="M236.185 295.365H239.859C244.172 295.365 248.083 292.845 249.84 288.922C251.261 285.742 252.991 281.584 254.608 276.872C252.402 280.518 247.921 282.83 243.001 282.83H238.622C232.39 281.755 230.045 275.667 229.952 267.688C227.845 281.156 228.423 293.769 236.185 295.365Z" fill="#317F8B"/>
</g>
</g>
</g>
</g>
<path d="M239.861 297.059H236.187C236.071 297.059 235.957 297.048 235.843 297.024C232.873 296.413 230.629 294.495 229.172 291.323C225.738 283.844 227.407 270.814 229.413 261.201C231.864 249.453 235.649 238.841 238.121 234.432C240.394 230.377 243.257 228.043 246.629 227.495C251.802 226.655 256.067 230.455 256.246 230.617C256.34 230.701 256.424 230.797 256.496 230.9C256.836 231.383 257.159 231.895 257.457 232.418C261.75 239.935 262.661 250.218 260.165 262.98C258.135 273.354 254.276 283.189 251.396 289.612C249.37 294.136 244.843 297.059 239.861 297.059ZM236.372 293.671H239.861C243.501 293.671 246.809 291.536 248.288 288.233C251.096 281.97 254.856 272.393 256.824 262.334C259.161 250.39 258.378 240.888 254.498 234.093C254.288 233.722 254.062 233.361 253.827 233.015C253.19 232.497 250.295 230.322 247.157 230.842C244.869 231.223 242.828 232.986 241.092 236.084C238.804 240.166 235.1 250.598 232.744 261.891C230.056 274.778 229.886 284.731 232.267 289.915C233.233 292.019 234.577 293.25 236.372 293.671Z" fill="#317F8B"/>
<path d="M47.827 295.365H44.1531C39.8396 295.365 35.9287 292.845 34.1722 288.922C28.6727 276.656 18.6454 249.702 28.0377 233.255C28.311 232.775 28.6035 232.313 28.9131 231.87C28.9131 231.87 37.9301 223.701 44.4082 235.257C50.4588 246.053 63.1588 292.213 47.827 295.365Z" fill="#AFAFB2"/>
<g opacity="0.7">
<g opacity="0.7">
<g opacity="0.7">
<g opacity="0.7">
<path opacity="0.7" d="M47.7237 242.952C47.5616 242.693 47.3994 242.449 47.2418 242.222C39.2771 230.666 28.1884 238.835 28.1884 238.835C27.8086 239.278 27.4468 239.74 27.1135 240.22C26.0011 241.803 25.1121 243.483 24.417 245.241C24.866 240.921 25.9875 236.837 28.0354 233.256C28.3086 232.776 28.6012 232.314 28.9107 231.871C28.9107 231.871 37.9277 223.702 44.4059 235.258C45.3878 237.008 46.5422 239.68 47.7237 242.952Z" fill="white"/>
</g>
</g>
</g>
</g>
<path d="M24.4669 246.473C23.6505 246.473 22.9304 245.886 22.791 245.058C22.6367 244.135 23.2615 243.262 24.1891 243.108L46.727 239.36C47.6534 239.207 48.53 239.829 48.6842 240.753C48.8384 241.676 48.2136 242.549 47.286 242.703L24.7481 246.451C24.654 246.467 24.5599 246.473 24.4669 246.473Z" fill="#317F8B"/>
<path d="M24.6093 258.602C23.7702 258.602 23.04 257.984 22.9254 257.134C22.8007 256.206 23.4538 255.354 24.3848 255.229L50.7509 251.698C51.683 251.572 52.538 252.224 52.6638 253.151C52.7886 254.079 52.1354 254.931 51.2045 255.056L24.8384 258.587C24.7613 258.597 24.6853 258.602 24.6093 258.602Z" fill="#317F8B"/>
<path d="M26.9353 270.481C26.0883 270.481 25.3546 269.852 25.2492 268.992C25.1347 268.064 25.798 267.219 26.7312 267.105L53.4953 263.842C54.4274 263.729 55.2756 264.389 55.3901 265.318C55.5047 266.247 54.8413 267.092 53.9081 267.206L27.144 270.469C27.0737 270.478 27.0034 270.481 26.9353 270.481Z" fill="#317F8B"/>
<path d="M31.1802 283.436C30.3093 283.436 29.5677 282.774 29.4884 281.894C29.4044 280.963 30.0939 280.139 31.0294 280.055L54.9575 277.904C55.8941 277.821 56.7196 278.507 56.8047 279.439C56.8886 280.371 56.1991 281.194 55.2637 281.279L31.3355 283.429C31.2834 283.434 31.2312 283.436 31.1802 283.436Z" fill="#317F8B"/>
<g opacity="0.35">
<g opacity="0.35">
<g opacity="0.35">
<g opacity="0.35">
<path opacity="0.35" d="M47.8262 295.365H44.1523C39.8389 295.365 35.9279 292.845 34.1715 288.922C32.7495 285.742 31.0203 281.584 29.4033 276.872C31.6088 280.518 36.0901 282.83 41.0102 282.83H45.3894C51.6215 281.755 53.9665 275.667 54.0595 267.688C56.1663 281.156 55.5869 293.769 47.8262 295.365Z" fill="#317F8B"/>
</g>
</g>
</g>
</g>
<path d="M47.8261 297.059H44.1522C39.1708 297.059 34.6431 294.136 32.6179 289.612C29.7388 283.19 25.8789 273.355 23.8492 262.981C21.3534 250.22 22.264 239.936 26.557 232.418C26.8552 231.895 27.1784 231.385 27.5163 230.901C27.5889 230.797 27.6728 230.702 27.7669 230.618C27.9461 230.455 32.2108 226.656 37.3838 227.496C40.7561 228.044 43.6192 230.378 45.8916 234.433C48.3636 238.842 52.1486 249.454 54.6002 261.202C56.6061 270.815 58.2752 283.845 54.8406 291.324C53.3835 294.497 51.1394 296.414 48.1697 297.025C48.0563 297.048 47.9406 297.059 47.8261 297.059ZM30.1845 233.017C29.9497 233.361 29.7252 233.722 29.5143 234.092C25.634 240.888 24.8505 250.389 27.1875 262.333C29.156 272.394 32.9149 281.97 35.7237 288.233C37.2035 291.537 40.5111 293.672 44.151 293.672H47.6401C49.4351 293.251 50.78 292.02 51.7461 289.915C54.1262 284.731 53.9572 274.778 51.2687 261.891C48.9124 250.598 45.209 240.166 42.9207 236.084C41.1847 232.986 39.1436 231.223 36.8553 230.842C33.7234 230.323 30.8297 232.491 30.1845 233.017Z" fill="#317F8B"/>
<path d="M89.2974 293.819C89.0559 293.819 88.811 293.762 88.5819 293.643C87.8245 293.249 87.5319 292.317 87.9288 291.562C94.3888 279.269 94.484 265.443 88.2123 250.47C83.4815 239.178 76.7074 231.45 76.6394 231.373C76.0747 230.735 76.1359 229.762 76.7766 229.198C77.4173 228.636 78.3947 228.696 78.9594 229.334C79.2486 229.66 86.0964 237.457 91.0312 249.196C93.9431 256.123 95.5669 262.977 95.8595 269.57C96.2269 277.858 94.4806 285.738 90.6695 292.991C90.3928 293.519 89.8542 293.819 89.2974 293.819Z" fill="#317F8B"/>
<path d="M195.341 293.819C194.784 293.819 194.246 293.518 193.969 292.992C190.158 285.739 188.412 277.859 188.779 269.571C189.072 262.978 190.696 256.124 193.608 249.197C198.542 237.458 205.39 229.66 205.679 229.335C206.245 228.697 207.223 228.636 207.863 229.199C208.504 229.762 208.565 230.735 207.999 231.373C207.931 231.45 201.157 239.177 196.427 250.47C190.155 265.444 190.25 279.269 196.71 291.562C197.106 292.317 196.813 293.247 196.057 293.643C195.828 293.762 195.583 293.819 195.341 293.819Z" fill="#317F8B"/>
<g opacity="0.35">
<path d="M193.271 145.779C191.486 147.813 189.61 149.745 187.655 151.559C183.014 155.863 177.928 159.525 172.487 162.428C163.297 167.338 153.102 170.092 142.365 170.143C131.875 170.189 121.891 167.651 112.841 163.039C106.915 160.013 101.391 156.104 96.3942 151.446C93.9086 149.124 91.5512 146.622 89.3389 143.957C93.3462 142.724 97.3274 141.296 100.973 139.883C105.501 129.019 110.781 117.893 116.94 106.768H167.072C172.162 115.967 176.654 125.161 180.614 134.217C184.39 136.41 188.738 140.54 193.271 145.779Z" fill="#317F8B"/>
</g>
<path d="M218.56 96.1751C217.687 96.2688 216.904 95.6398 216.809 94.7701L211.917 49.4202C211.822 48.5506 212.454 47.7702 213.327 47.6765C222.486 46.6961 230.708 53.2963 231.692 62.4185L233.363 77.8833C234.347 87.0055 227.719 95.1948 218.56 96.1751Z" fill="white"/>
<path d="M218.387 96.575C217.937 96.575 217.503 96.4236 217.148 96.1379C216.735 95.807 216.478 95.336 216.421 94.812L211.528 49.4621C211.472 48.938 211.623 48.423 211.956 48.0131C212.288 47.6031 212.761 47.3456 213.287 47.2891C222.648 46.2873 231.078 53.0558 232.084 62.3779L233.752 77.8428C234.24 82.3581 232.932 86.7921 230.07 90.3283C227.209 93.8644 223.136 96.0792 218.603 96.5648L218.561 96.1763L218.603 96.5648C218.531 96.5716 218.459 96.575 218.387 96.575ZM215.123 47.9701C214.543 47.9701 213.959 48.0006 213.371 48.0639C213.052 48.0978 212.766 48.2536 212.566 48.501C212.365 48.7494 212.273 49.06 212.307 49.3774L217.2 94.7273C217.234 95.0446 217.391 95.3292 217.64 95.5291C217.89 95.729 218.201 95.8205 218.52 95.7867C222.846 95.3236 226.731 93.2105 229.461 89.837C232.192 86.4635 233.439 82.2327 232.974 77.9241L231.306 62.4592C230.408 54.1525 223.33 47.9701 215.123 47.9701Z" fill="#317F8B"/>
<g opacity="0.35">
<g opacity="0.35">
<g opacity="0.35">
<g opacity="0.35">
<path opacity="0.35" d="M232.581 70.6315L233.365 77.8845C234.348 87.0032 227.722 95.1948 218.562 96.1785C217.689 96.2733 216.905 95.6386 216.811 94.7701L215.506 82.7149C215.81 83.2378 216.404 83.5586 217.045 83.4953L218.124 83.3767C225.361 82.6031 231.021 77.3232 232.581 70.6315Z" fill="#317F8B"/>
</g>
</g>
</g>
</g>
<path d="M218.385 98.3583C217.527 98.3583 216.702 98.0691 216.025 97.5259C215.24 96.8968 214.749 96.0001 214.642 95.0028L209.749 49.6529C209.641 48.6557 209.93 47.6754 210.562 46.8938C211.193 46.1123 212.094 45.6233 213.095 45.516C223.434 44.4091 232.752 51.888 233.863 62.187L235.531 77.6519C236.069 82.6404 234.625 87.5398 231.463 91.4475C228.302 95.3541 223.803 97.8015 218.793 98.3368C218.658 98.3504 218.521 98.3583 218.385 98.3583ZM218.33 94.0146H218.329C218.329 94.0146 218.329 94.0146 218.33 94.0146ZM214.153 49.7862L218.916 93.9412C222.53 93.4081 225.762 91.5695 228.068 88.72C230.498 85.7169 231.609 81.9515 231.195 78.1161L229.527 62.6512C228.693 54.9306 221.862 49.2712 214.153 49.7862Z" fill="#317F8B"/>
<path d="M63.0379 63.7624C63.9111 63.6687 64.6946 64.2978 64.7887 65.1674L69.6816 110.517C69.7757 111.387 69.1441 112.167 68.271 112.261C59.1123 113.241 50.8902 106.641 49.9059 97.5191L48.2379 82.0542C47.2514 72.932 53.8792 64.7427 63.0379 63.7624Z" fill="white"/>
<path d="M66.4749 112.748C57.8729 112.749 50.4537 106.269 49.5148 97.5609L47.8468 82.096C46.841 72.774 53.6366 64.3757 62.996 63.374L63.038 63.7625L62.996 63.374C64.0812 63.2576 65.0609 64.0437 65.1777 65.1257L70.0706 110.476C70.1874 111.558 69.3982 112.532 68.3119 112.649C67.6962 112.715 67.0816 112.748 66.4749 112.748ZM63.2081 64.1431C63.165 64.1431 63.123 64.1453 63.0788 64.1499C54.1491 65.1053 47.6653 73.1184 48.6258 82.0124L50.2938 97.4773C51.2531 106.371 59.2972 112.829 68.228 111.874C68.8845 111.804 69.3619 111.214 69.2916 110.56L64.3987 65.2104C64.3329 64.5982 63.8113 64.1431 63.2081 64.1431Z" fill="#317F8B"/>
<g opacity="0.35">
<g opacity="0.35">
<g opacity="0.35">
<g opacity="0.35">
<path opacity="0.35" d="M68.3288 97.9359L69.6849 110.517C69.7802 111.387 69.1429 112.167 68.2709 112.261C63.4631 112.774 58.9092 111.201 55.5279 108.267C52.4742 105.617 50.3764 101.852 49.9081 97.5214L49.2051 91.0048C52.422 96.444 58.6439 99.8062 65.359 99.089L67.0202 98.9106C67.6257 98.8451 68.1054 98.4554 68.3288 97.9359Z" fill="#317F8B"/>
</g>
</g>
</g>
</g>
<path d="M66.4742 114.53C56.9696 114.531 48.7736 107.372 47.736 97.7506L46.068 82.2858C44.9568 71.9868 52.4657 62.7076 62.8059 61.6008C64.872 61.3795 66.7361 62.8748 66.9584 64.9337L71.8513 110.285C72.0735 112.345 70.5722 114.199 68.5039 114.421C67.8224 114.495 67.1444 114.53 66.4742 114.53ZM62.6835 65.9976C55.0408 67.127 49.573 74.1021 50.4053 81.8227L52.0733 97.2876C52.9068 105.008 59.7375 110.666 67.4471 110.153L62.6835 65.9976Z" fill="#317F8B"/>
<path d="M140.807 157.693C183.906 157.693 218.844 122.895 218.844 79.9681C218.844 37.0417 183.906 2.24292 140.807 2.24292C97.7088 2.24292 62.7705 37.0417 62.7705 79.9681C62.7705 122.895 97.7088 157.693 140.807 157.693Z" fill="white"/>
<path d="M140.732 158.085C131.164 158.085 121.817 156.377 112.905 152.994C103.429 149.398 94.844 144.069 87.3861 137.16C79.9283 130.249 73.9752 122.104 69.6901 112.95C65.2542 103.472 62.8117 93.3233 62.4295 82.7849C62.0474 72.2465 63.7494 61.9486 67.488 52.1771C71.0984 42.7387 76.4483 34.188 83.3856 26.7599C90.323 19.3319 98.5032 13.4014 107.695 9.1334C117.211 4.71519 127.4 2.28247 137.981 1.90186C148.562 1.52126 158.901 3.21648 168.711 6.94011C178.188 10.5361 186.773 15.8646 194.23 22.7743C201.688 29.6851 207.641 37.8303 211.926 46.9841C216.362 56.462 218.805 66.6108 219.187 77.1492C219.569 87.6876 217.867 97.9855 214.129 107.757C210.518 117.195 205.168 125.746 198.23 133.174C191.291 140.602 183.113 146.532 173.923 150.8C164.407 155.218 154.218 157.65 143.637 158.031C142.665 158.067 141.697 158.085 140.732 158.085ZM140.844 2.63145C139.901 2.63145 138.959 2.6484 138.008 2.68228C95.2227 4.22052 61.6698 40.141 63.2131 82.7555C63.9603 103.399 72.7347 122.517 87.9191 136.587C102.4 150.007 121.062 157.303 140.737 157.304C141.692 157.304 142.647 157.287 143.606 157.252C164.332 156.508 183.527 147.768 197.654 132.644C211.78 117.521 219.148 97.8228 218.401 77.1797C216.893 35.5116 182.374 2.63145 140.844 2.63145Z" fill="#317F8B"/>
<g opacity="0.35">
<g opacity="0.35">
<g opacity="0.35">
<g opacity="0.35">
<path opacity="0.35" d="M217.658 66.4403C218.282 69.9347 218.664 73.5149 218.797 77.1662C220.345 120.064 186.691 156.094 143.621 157.645C100.551 159.187 64.3763 125.667 62.8194 82.7703C62.774 81.537 62.7582 80.3014 62.7729 79.0828C69.3996 116.705 103.028 144.647 142.436 143.232C184.268 141.726 217.212 107.698 217.658 66.4403Z" fill="#317F8B"/>
</g>
</g>
</g>
</g>
<path d="M140.732 159.867C130.945 159.867 121.385 158.119 112.269 154.66C102.577 150.981 93.7949 145.532 86.1681 138.464C78.5413 131.396 72.4522 123.065 68.0695 113.702C63.5315 104.007 61.0335 93.626 60.6434 82.8482C60.2534 72.0703 61.9939 61.5364 65.8187 51.5412C69.5119 41.8883 74.9831 33.1411 82.0792 25.5447C89.1753 17.9484 97.538 11.8824 106.939 7.51842C116.673 2.99856 127.096 0.510498 137.917 0.121985C148.739 -0.266528 159.314 1.4671 169.35 5.27656C179.041 8.95501 187.824 14.4044 195.45 21.4721C203.077 28.5399 209.166 36.8715 213.549 46.2342C218.087 55.9289 220.585 66.3104 220.975 77.0882C221.365 87.8661 219.625 98.4 215.8 108.395C212.107 118.048 206.635 126.795 199.539 134.392C192.443 141.988 184.078 148.053 174.678 152.418C164.944 156.938 154.521 159.426 143.7 159.814C142.709 159.849 141.718 159.867 140.732 159.867ZM140.845 4.41483C139.923 4.41483 139.003 4.43177 138.075 4.46452C96.2748 5.96662 63.4953 41.0593 65.0034 82.6923C65.7336 102.86 74.3061 121.537 89.1402 135.284C103.288 148.394 121.518 155.523 140.742 155.523C141.674 155.523 142.608 155.506 143.545 155.472C163.793 154.745 182.545 146.206 196.347 131.431C210.149 116.657 217.348 97.4129 216.616 77.2452C215.141 36.536 181.417 4.41483 140.845 4.41483Z" fill="#317F8B"/>
<path d="M218.619 79.1697C219.4 94.359 215.174 108.715 207.308 120.814C201.41 129.885 176.105 146.526 143.899 148.457C114.037 150.248 86.0391 135.769 79.2423 127.346C70.1755 116.11 64.5001 102.26 63.7189 87.0709C61.6517 46.8745 95.4688 28.4416 138.246 26.2596C181.021 24.0776 216.552 38.9733 218.619 79.1697Z" fill="#17A2B8"/>
<path d="M138.716 150.105C123.867 150.105 110.953 146.419 102.38 143.125C91.5253 138.956 81.9833 133.129 78.0724 128.282C68.4737 116.387 62.9923 102.162 62.2201 87.1467C61.7076 77.1831 63.3574 68.1423 67.1209 60.2749C70.6645 52.8705 76.0994 46.4556 83.2771 41.2061C96.3899 31.6153 115.371 25.931 138.167 24.7688C160.965 23.6067 180.429 27.3292 194.456 35.5354C202.134 40.027 208.2 45.8558 212.484 52.8615C217.035 60.3042 219.604 69.1305 220.115 79.094C220.887 94.1094 216.892 108.816 208.565 121.626C205.105 126.948 196.511 133.471 186.139 138.648C177.028 143.196 162.319 148.849 143.988 149.948C142.207 150.054 140.447 150.105 138.716 150.105ZM146.217 27.546C143.635 27.546 141.004 27.6138 138.321 27.7505C116.111 28.8832 97.6916 34.3687 85.0517 43.6129C70.94 53.9344 64.2657 68.5308 65.2148 86.9942C65.9541 101.378 71.2087 115.009 80.4094 126.411C83.1467 129.804 90.8257 135.487 103.46 140.34C112.755 143.91 127.298 147.958 143.808 146.968C161.633 145.898 175.937 140.401 184.798 135.978C196.671 130.051 203.667 123.668 206.051 120.003C214.034 107.724 217.863 93.6305 217.124 79.2465C216.175 60.7831 208.038 46.9423 192.94 38.1104C181.051 31.1556 165.012 27.546 146.217 27.546Z" fill="#317F8B"/>
<g opacity="0.5">
<g opacity="0.5">
<g opacity="0.5">
<g opacity="0.5">
<path d="M203.083 76.2644C204.057 68.73 200.403 62.0523 194.922 61.3494C189.44 60.6465 184.207 66.1844 183.233 73.7188C182.259 81.2532 185.913 87.9308 191.395 88.6337C196.876 89.3367 202.109 83.7987 203.083 76.2644Z" fill="white"/>
</g>
</g>
</g>
</g>
<g opacity="0.5">
<g opacity="0.5">
<g opacity="0.5">
<g opacity="0.5">
<path d="M187.572 104.269C188.495 100.906 186.894 97.5402 183.996 96.7515C181.098 95.9628 178.001 98.0499 177.078 101.413C176.155 104.777 177.756 108.142 180.654 108.931C183.552 109.72 186.649 107.633 187.572 104.269Z" fill="white"/>
</g>
</g>
</g>
</g>
<g opacity="0.35">
<path d="M201.628 42.4384C211.559 50.954 217.786 63.0239 218.619 79.1675C219.4 94.3602 215.171 108.715 207.311 120.814C201.411 129.885 176.103 146.525 143.897 148.461C132.526 149.146 121.428 147.468 111.663 144.659C151.2 141.44 182.019 121.029 189.333 109.778C199.318 94.4212 204.68 76.1995 203.686 56.9252C203.425 51.7728 202.719 46.9492 201.628 42.4384Z" fill="#317F8B"/>
</g>
<path d="M67.788 54.5872C67.3481 54.5872 66.9059 54.4505 66.5271 54.1671C65.6359 53.4985 65.4306 52.2595 66.0373 51.3458C69.2758 46.0467 73.4112 41.2038 78.3279 36.9528C83.1153 32.8147 88.6829 29.2017 94.8753 26.2144C100.938 23.2904 107.64 20.9481 114.793 19.2517C121.881 17.5712 129.448 16.5163 137.285 16.1165C144.994 15.7235 152.547 15.9889 159.735 16.9037C166.989 17.8275 173.885 19.4166 180.232 21.6246C186.726 23.8845 192.667 26.8029 197.893 30.2984C203.264 33.8921 207.91 38.1183 211.704 42.8606C212.366 43.5914 212.434 44.7106 211.814 45.5238C211.113 46.4431 209.797 46.6215 208.874 45.9236L208.654 45.7609L208.488 45.5509C194.44 27.9142 168.565 18.7073 137.5 20.2919C106.262 21.8855 81.5108 34.0152 69.591 53.5707L69.5366 53.66L69.4651 53.7537C69.0546 54.2992 68.4253 54.5872 67.788 54.5872Z" fill="#317F8B"/>
<g opacity="0.5">
<g opacity="0.5">
<g opacity="0.5">
<g opacity="0.5">
<path d="M82.3409 110.096C82.3409 110.096 67.8028 71.08 88.4471 54.1831C109.091 37.2861 139.965 35.7761 139.345 37.7842C139.345 37.7842 105.593 47.7681 93.6042 75.3593C84.3593 96.6361 82.3409 110.096 82.3409 110.096Z" fill="white"/>
</g>
</g>
</g>
</g>
<path d="M211.532 299.837H73.129C68.6478 299.837 65.0146 296.218 65.0146 291.755C65.0146 289.183 67.1079 287.099 69.6898 287.099H214.971C217.553 287.099 219.646 289.183 219.646 291.755C219.646 296.22 216.013 299.837 211.532 299.837Z" fill="#E6E9FA"/>
<g opacity="0.3">
<g opacity="0.3">
<g opacity="0.3">
<g opacity="0.3">
<path opacity="0.3" d="M219.644 291.756C219.644 292.639 219.5 293.488 219.237 294.284C218.51 292.655 216.875 291.526 214.972 291.526H69.691C68.4017 291.526 67.2315 292.044 66.3856 292.892C65.983 293.293 65.6531 293.761 65.4217 294.285C65.1587 293.489 65.0146 292.642 65.0146 291.757C65.0146 290.473 65.5351 289.308 66.3867 288.465C67.2326 287.618 68.4028 287.099 69.6921 287.099H214.972C217.555 287.098 219.644 289.182 219.644 291.756Z" fill="white"/>
</g>
</g>
</g>
</g>
<g opacity="0.35">
<g opacity="0.35">
<g opacity="0.35">
<g opacity="0.35">
<path opacity="0.35" d="M219.644 291.756C219.644 293.986 218.737 296.01 217.266 297.468C215.801 298.931 213.769 299.836 211.532 299.836H73.1315C68.6502 299.836 65.0137 296.22 65.0137 291.756C65.0137 290.898 65.2461 290.092 65.6577 289.398C66.8847 292.291 69.7728 294.325 73.1303 294.325H211.531C213.769 294.325 215.801 293.421 217.265 291.956C217.997 291.227 218.59 290.359 218.998 289.398C219.413 290.092 219.644 290.898 219.644 291.756Z" fill="#317F8B"/>
</g>
</g>
</g>
</g>
<path d="M211.533 301.893H73.1301C67.5183 301.893 62.9531 297.346 62.9531 291.756C62.9531 288.057 65.9762 285.046 69.6909 285.046H214.972C218.687 285.046 221.71 288.057 221.71 291.756C221.71 297.345 217.145 301.893 211.533 301.893ZM69.6898 289.154C68.2497 289.154 67.0772 290.321 67.0772 291.756C67.0772 295.08 69.7918 297.784 73.129 297.784H211.533C214.87 297.784 217.584 295.08 217.584 291.756C217.584 290.322 216.413 289.154 214.972 289.154H69.6898Z" fill="#317F8B"/>
<path d="M227.724 196.109L214.188 287.096H70.4749L69.9851 283.804L56.9313 196.109C56.5038 193.228 58.7467 190.644 61.6654 190.644H222.989C225.915 190.644 228.152 193.228 227.724 196.109Z" fill="#FF66AC"/>
<path d="M227.724 196.109L214.188 287.096H70.4749L69.9851 283.804L56.9313 196.109C56.5038 193.228 58.7467 190.644 61.6654 190.644H222.989C225.915 190.644 228.152 193.228 227.724 196.109Z" fill="#E6E9FA"/>
<g opacity="0.5">
<g opacity="0.5">
<g opacity="0.5">
<g opacity="0.5">
<path opacity="0.5" d="M62.0348 201.757C61.6073 198.876 63.8502 196.292 66.7689 196.292H227.698L227.725 196.11C228.153 193.229 225.916 190.645 222.991 190.645H61.6674C58.7487 190.645 56.5058 193.229 56.9333 196.11L69.9859 283.806L70.4758 287.098H74.7382L62.0348 201.757Z" fill="white"/>
</g>
</g>
</g>
</g>
<g opacity="0.35">
<g opacity="0.35">
<g opacity="0.35">
<g opacity="0.35">
<path opacity="0.35" d="M218.455 190.644H207.127C211.423 206.317 209.053 241.71 181.342 260.208C146.555 283.428 83.8628 283.28 70.5527 283.804L71.0426 287.096H209.653L223.19 196.109C223.617 193.228 221.38 190.644 218.455 190.644Z" fill="#317F8B"/>
</g>
</g>
</g>
</g>
<path d="M215.966 289.154H68.6957L54.8946 196.409C54.6021 194.445 55.1815 192.457 56.4833 190.954C57.785 189.451 59.6753 188.589 61.6676 188.589H222.994C224.987 188.589 226.876 189.451 228.178 190.954C229.48 192.457 230.059 194.445 229.767 196.409L215.966 289.154ZM72.2551 285.044H212.406L225.686 195.806C225.804 195.014 225.579 194.244 225.054 193.638C224.529 193.031 223.798 192.698 222.994 192.698H61.6676C60.8636 192.698 60.1323 193.032 59.6072 193.638C59.0822 194.244 58.8577 195.014 58.9757 195.806L72.2551 285.044Z" fill="#317F8B"/>
<g opacity="0.3">
<g opacity="0.3">
<g opacity="0.3">
<g opacity="0.3">
<path opacity="0.3" d="M81.915 265.839C76.4631 253.87 72.4932 233.438 73.3879 221.413C74.2826 209.388 81.2846 213.068 83.4549 228.471C89.23 269.463 84.3484 271.183 81.915 265.839Z" fill="white"/>
</g>
</g>
</g>
</g>
<path d="M161.106 228.547C161.282 227.011 161.486 225.458 161.184 223.896C161.049 223.727 160.925 223.553 160.79 223.384C160.343 223.223 159.909 223.014 159.444 222.898C156.174 222.057 152.858 221.724 149.49 222.013C145.099 222.39 141.068 223.739 137.601 226.52C136.346 227.523 135.202 228.656 134.03 229.755C133.716 230.053 133.475 230.177 133.034 229.976C131.996 229.506 130.878 229.296 129.743 229.24C126.698 229.102 123.982 230.082 121.447 231.667C118.701 233.39 116.487 235.693 114.426 238.159C113.548 239.203 113.89 240.368 115.196 240.807C116.02 241.075 116.845 241.338 117.669 241.607C119.644 242.244 121.615 242.875 123.585 243.511C123.58 243.572 123.586 243.603 123.577 243.634C123.561 243.672 123.544 243.716 123.517 243.754C122.695 244.806 122.894 245.78 123.76 246.695C123.853 246.796 123.934 246.917 124.016 247.027C124.469 247.621 124.933 248.222 125.414 248.84C124.757 249.345 124.112 249.774 123.542 250.293C123.254 250.554 123 250.933 122.891 251.309C122.706 251.916 123.021 252.536 123.563 252.854C124.138 253.199 124.73 253.184 125.265 252.8C125.944 252.319 126.593 251.797 127.284 251.272C127.936 252.128 128.554 252.938 129.174 253.738C129.885 254.649 130.375 254.805 131.477 254.501C131.678 254.439 131.876 254.396 132.113 254.338C132.129 254.573 132.147 254.762 132.157 254.938C132.298 257.775 132.427 260.617 132.584 263.446C132.655 264.788 133.719 265.421 134.935 264.846C136.034 264.33 137.132 263.784 138.209 263.202C140.691 261.857 142.95 260.21 144.752 258.02C147.007 255.264 148.256 252.187 147.672 248.55C147.647 248.407 147.767 248.162 147.892 248.088C148.998 247.378 150.135 246.713 151.242 245.997C153.746 244.371 155.759 242.259 157.333 239.736C159.471 236.306 160.652 232.543 161.106 228.547ZM125.214 240.824C122.934 240.084 120.57 239.316 118.141 238.529C120.65 235.873 123.306 233.553 126.882 232.574C128.428 232.15 130.214 232.186 131.268 232.613C129.266 235.335 127.259 238.057 125.214 240.824ZM144.395 252.499C143.815 254.341 142.708 255.84 141.345 257.178C139.651 258.821 137.679 260.047 135.548 261.166C135.42 258.557 135.288 256.004 135.159 253.505C138.382 252.256 141.535 251.037 144.703 249.811C144.825 250.68 144.676 251.602 144.395 252.499ZM156.299 235.031C155.261 237.47 153.9 239.69 151.959 241.529C150.461 242.939 148.762 244.071 146.973 245.077C142.122 247.805 136.923 249.685 131.607 251.275C131.348 251.35 131.189 251.336 131.018 251.099C130.647 250.574 130.231 250.068 129.838 249.55C129.812 249.52 129.803 249.472 129.766 249.379C129.902 249.271 130.047 249.163 130.193 249.052C133.227 246.732 136.275 244.42 139.309 242.096C140.185 241.433 140.224 240.293 139.412 239.636C138.845 239.174 138.098 239.181 137.444 239.671C135.618 241.058 133.797 242.445 131.976 243.837C130.617 244.872 129.27 245.902 127.86 246.979C127.375 246.349 126.908 245.774 126.486 245.169C126.415 245.06 126.488 244.787 126.585 244.653C128.202 242.249 129.805 239.833 131.488 237.472C133.153 235.127 135.045 232.961 137.127 230.973C139.079 229.095 141.195 227.437 143.752 226.449C145.391 225.813 147.083 225.38 148.83 225.194C148.989 225.172 149.219 225.33 149.332 225.475C151.109 227.764 152.864 230.055 154.625 232.351C155.153 233.034 155.675 233.731 156.219 234.407C156.382 234.61 156.403 234.784 156.299 235.031ZM157.352 231.831C155.597 229.54 153.882 227.312 152.165 225.073C152.168 225.022 152.182 224.963 152.19 224.907C154.189 225.146 156.193 225.39 158.217 225.631C158.18 227.803 157.858 229.792 157.352 231.831Z" fill="#317F8B"/>
<path d="M156.222 234.405C155.677 233.73 155.157 233.033 154.628 232.35C152.868 230.054 151.112 227.762 149.335 225.474C149.223 225.329 148.993 225.17 148.834 225.193C147.086 225.379 145.395 225.812 143.755 226.448C141.197 227.436 139.082 229.094 137.13 230.972C135.049 232.96 133.156 235.126 131.491 237.471C129.809 239.833 128.205 242.249 126.588 244.651C126.491 244.786 126.418 245.059 126.49 245.167C126.91 245.773 127.378 246.348 127.863 246.978C129.273 245.9 130.621 244.869 131.979 243.836C133.8 242.443 135.621 241.055 137.447 239.67C138.101 239.179 138.847 239.174 139.415 239.635C140.227 240.293 140.19 241.433 139.312 242.094C136.278 244.419 133.23 246.731 130.197 249.05C130.05 249.162 129.904 249.269 129.769 249.378C129.806 249.472 129.816 249.519 129.842 249.548C130.234 250.067 130.65 250.573 131.021 251.098C131.192 251.335 131.351 251.349 131.611 251.274C136.926 249.684 142.125 247.804 146.976 245.076C148.765 244.071 150.464 242.938 151.962 241.527C153.902 239.689 155.264 237.468 156.302 235.03C156.404 234.784 156.383 234.61 156.222 234.405ZM150.899 237.902C148.58 239.642 145.298 239.217 143.556 236.939C141.803 234.664 142.246 231.398 144.543 229.634C146.798 227.904 150.081 228.351 151.84 230.627C153.578 232.889 153.154 236.203 150.899 237.902Z" fill="white"/>
<path d="M157.352 231.829C155.595 229.542 153.881 227.312 152.165 225.073C152.171 225.02 152.182 224.965 152.19 224.907C154.189 225.148 156.194 225.391 158.22 225.632C158.182 227.801 157.856 229.792 157.352 231.829Z" fill="#DB2C2C"/>
<path d="M131.268 232.614C129.264 235.333 127.257 238.057 125.214 240.826C122.931 240.082 120.566 239.316 118.139 238.53C120.65 235.87 123.305 233.551 126.881 232.574C128.427 232.149 130.21 232.186 131.268 232.614Z" fill="#DB2C2C"/>
<path d="M141.343 257.178C139.65 258.822 137.68 260.05 135.546 261.166C135.417 258.559 135.286 256.006 135.158 253.505C138.382 252.257 141.533 251.039 144.706 249.809C144.827 250.681 144.674 251.601 144.396 252.501C143.817 254.343 142.71 255.842 141.343 257.178Z" fill="#DB2C2C"/>
<path d="M151.838 230.627C150.081 228.351 146.797 227.905 144.542 229.634C142.244 231.399 141.802 234.664 143.555 236.939C145.297 239.217 148.578 239.643 150.897 237.902C153.154 236.204 153.578 232.889 151.838 230.627ZM149.335 235.981C148.16 236.868 146.434 236.634 145.519 235.465C144.572 234.26 144.831 232.489 146.084 231.563C147.257 230.686 149.016 230.941 149.899 232.115C150.822 233.337 150.568 235.053 149.335 235.981Z" fill="#317F8B"/>
<path d="M149.332 235.981C148.157 236.868 146.432 236.634 145.514 235.463C144.572 234.26 144.827 232.489 146.08 231.563C147.256 230.689 149.012 230.939 149.896 232.113C150.819 233.336 150.568 235.054 149.332 235.981Z" fill="#22A7F0"/>
<path d="M227.012 200.91C227.012 200.91 215.874 195.646 205.415 200.368C195.399 204.89 188.313 237.085 201.29 245.24C209.299 250.274 214.751 245.827 219.282 247.133C226.003 249.069 239.791 215.92 227.012 200.91Z" fill="white"/>
<g opacity="0.35">
<path d="M232.037 221.861C230.717 235.356 223.565 248.366 219.284 247.133C214.751 245.828 209.3 250.276 201.291 245.242C195.092 241.344 193.472 231.965 194.566 222.729C195.303 228.117 197.391 232.734 201.291 235.185C209.3 240.213 214.633 237.876 219.284 237.076C225.034 236.084 229.722 229.828 232.037 221.861Z" fill="#317F8B"/>
</g>
<path d="M209.503 249.756C206.8 249.756 203.673 249.168 200.189 246.978C197.069 245.017 194.816 241.845 193.493 237.549C192.381 233.944 191.966 229.55 192.291 224.844C192.675 219.27 194.052 213.552 196.164 208.743C197.779 205.069 200.547 200.309 204.562 198.496C215.764 193.439 227.405 198.822 227.895 199.053L228.296 199.243L228.583 199.581C234.432 206.45 234.77 215.94 234.023 222.69C233.181 230.297 230.486 238.365 226.988 243.748C223.484 249.138 220.55 249.638 218.707 249.107C217.51 248.762 215.999 249.003 214.248 249.282C212.865 249.503 211.275 249.756 209.503 249.756ZM214.949 200.45C211.814 200.45 208.907 201.048 206.268 202.24C204.096 203.221 201.791 206.192 199.946 210.392C198.045 214.716 196.756 220.086 196.408 225.128C195.793 234.029 197.974 240.728 202.391 243.504C206.844 246.303 210.278 245.755 213.598 245.225C215.745 244.883 217.772 244.56 219.855 245.16C220.095 245.201 221.811 244.542 224.232 240.364C229.878 230.623 233.459 212.226 225.735 202.596C224.859 202.234 222.606 201.381 219.658 200.87C218.038 200.59 216.466 200.45 214.949 200.45Z" fill="#317F8B"/>
</svg>
